<svg width="21" height="25" viewBox="0 0 21 25" fill="none" xmlns="http://www.w3.org/2000/svg">
<path d="M17.8102 12.8518C17.8328 15.2127 19.2053 16.5568 20.1851 17.2171C20.7062 17.5682 21.0184 18.1879 20.7756 18.7564C20.4996 19.4025 20.0628 20.2831 19.4307 21.1788C18.3917 22.651 17.3135 24.1178 15.6149 24.1482C13.9459 24.178 13.4092 23.1886 11.501 23.1886C9.5934 23.1886 8.99712 24.1178 7.41719 24.178C5.77762 24.2382 4.52906 22.5861 3.48154 21.1192C1.34098 18.1189 -0.294853 12.6409 1.90166 8.94313C2.99284 7.10682 4.94286 5.94399 7.05943 5.91417C8.66945 5.88439 10.1891 6.96433 11.1733 6.96433C12.157 6.96433 14.0036 5.66561 15.945 5.85634C16.6123 5.88327 18.2696 6.08054 19.6521 7.30084C20.1772 7.76427 19.9902 8.55187 19.4838 9.03442C18.7136 9.76836 17.7933 11.0275 17.8102 12.8518ZM14.6735 3.87133C15.312 3.12193 15.7974 2.15699 15.9476 1.13742C16.0403 0.508744 15.4535 0.02645 14.8313 0.224786C13.8856 0.526195 12.9365 1.12002 12.2981 1.84433C11.6802 2.53695 11.1211 3.54824 10.9791 4.60702C10.9032 5.17268 11.4035 5.63217 11.9787 5.51225C13.0272 5.29366 14.0117 4.64847 14.6735 3.87133Z" fill="#000"/>
</svg>
